<svg xmlns="http://www.w3.org/2000/svg" width="2834" height="1289" viewBox="0 0 2834 1289" fill="none">
  <path d="M64.4 1288H0V1223.6M64.4 1288V1223.6M64.4 1288H128.8M64.4 1223.6H0M64.4 1223.6V1159.2M64.4 1223.6H128.8M0 1223.6V1159.2M64.4 1159.2H0M64.4 1159.2V1094.8M64.4 1159.2H128.8M0 1159.2V1094.8M64.4 1094.8H0M64.4 1094.8V1030.4M64.4 1094.8H128.8M0 1094.8V1030.4M64.4 1030.4H0M64.4 1030.4V966M64.4 1030.4H128.8M0 1030.4V966M64.4 966H0M64.4 966V901.6M64.4 966H128.8M0 966V901.6M64.4 901.6H0M64.4 901.6V837.2M64.4 901.6H128.8M0 901.6V837.2M64.4 837.2H0M64.4 837.2V772.8M64.4 837.2H128.8M0 837.2V772.8M64.4 772.8H0M64.4 772.8V708.4M64.4 772.8H128.8M0 772.8V708.4M64.4 708.4H0M64.4 708.4V644M64.4 708.4H128.8M0 708.4V644M64.4 644H0M64.4 644V579.6M64.4 644H128.8M0 644V579.6M64.4 579.6H0M64.4 579.6V515.2M64.4 579.6H128.8M0 579.6V515.2M64.4 515.2H0M64.4 515.2V450.8M64.4 515.2H128.8M0 515.2V450.8M64.4 450.8H0M64.4 450.8V386.4M64.4 450.8H128.8M0 450.8V386.4M64.4 386.4H0M64.4 386.4V322M64.4 386.4H128.8M0 386.4V322M64.4 322H0M64.4 322V257.6M64.4 322H128.8M0 322V257.6M64.4 257.6H0M64.4 257.6V193.2M64.4 257.6H128.8M0 257.6V193.2M64.4 193.2H0M64.4 193.2V128.8M64.4 193.2H128.8M0 193.2V128.8M64.4 128.8H0M64.4 128.8V64.4M64.4 128.8H128.8M0 128.8V64.4M64.4 64.4H0M64.4 64.4V0M64.4 64.4H128.8M0 64.4V0H64.4M64.4 0H128.8M128.8 1288V1223.6M128.8 1288H193.2M128.8 1223.6V1159.2M128.8 1223.6H193.2M128.8 1159.2V1094.8M128.8 1159.2H193.2M128.8 1094.8V1030.4M128.8 1094.8H193.2M128.8 1030.4V966M128.8 1030.4H193.2M128.8 966V901.6M128.8 966H193.2M128.8 901.6V837.2M128.8 901.6H193.2M128.8 837.2V772.8M128.8 837.2H193.2M128.8 772.8V708.4M128.8 772.8H193.2M128.8 708.4V644M128.8 708.4H193.2M128.8 644V579.6M128.8 644H193.2M128.8 579.6V515.2M128.8 579.6H193.2M128.8 515.2V450.8M128.8 515.2H193.2M128.8 450.8V386.4M128.8 450.8H193.2M128.8 386.4V322M128.8 386.4H193.2M128.8 322V257.6M128.8 322H193.2M128.8 257.6V193.2M128.8 257.6H193.2M128.8 193.2V128.8M128.8 193.2H193.2M128.8 128.8V64.4M128.8 128.8H193.2M128.8 64.4V0M128.8 64.4H193.2M128.8 0H193.2M193.2 1288V1223.6M193.2 1288H257.6M193.2 1223.6V1159.2M193.2 1223.6H257.6M193.2 1159.2V1094.8M193.2 1159.2H257.6M193.2 1094.8V1030.4M193.2 1094.8H257.6M193.2 1030.4V966M193.2 1030.4H257.6M193.2 966V901.6M193.2 966H257.6M193.2 901.6V837.2M193.2 901.6H257.6M193.2 837.2V772.8M193.2 837.2H257.6M193.2 772.8V708.4M193.2 772.8H257.6M193.2 708.4V644M193.2 708.4H257.6M193.2 644V579.6M193.2 644H257.6M193.2 579.6V515.2M193.2 579.6H257.6M193.2 515.2V450.8M193.2 515.2H257.6M193.2 450.8V386.4M193.2 450.8H257.6M193.2 386.4V322M193.2 386.4H257.6M193.2 322V257.6M193.2 322H257.6M193.2 257.6V193.2M193.2 257.6H257.6M193.2 193.2V128.8M193.2 193.2H257.6M193.2 128.8V64.4M193.2 128.8H257.6M193.2 64.4V0M193.2 64.4H257.6M193.2 0H257.6M257.6 1288V1223.6M257.6 1288H322M257.6 1223.6V1159.2M257.6 1223.6H322M257.6 1159.2V1094.8M257.6 1159.2H322M257.6 1094.8V1030.4M257.6 1094.8H322M257.6 1030.4V966M257.6 1030.4H322M257.6 966V901.6M257.6 966H322M257.6 901.6V837.2M257.6 901.6H322M257.6 837.2V772.8M257.6 837.2H322M257.6 772.8V708.4M257.6 772.8H322M257.6 708.4V644M257.6 708.4H322M257.6 644V579.6M257.6 644H322M257.6 579.6V515.2M257.6 579.6H322M257.6 515.2V450.8M257.6 515.2H322M257.6 450.8V386.4M257.6 450.8H322M257.6 386.4V322M257.6 386.4H322M257.6 322V257.6M257.6 322H322M257.6 257.6V193.2M257.6 257.6H322M257.6 193.2V128.8M257.6 193.2H322M257.6 128.8V64.4M257.6 128.8H322M257.6 64.4V0M257.6 64.4H322M257.6 0H322M322 1288V1223.6M322 1288H386.4M322 1223.6V1159.2M322 1223.6H386.4M322 1159.2V1094.8M322 1159.2H386.4M322 1094.8V1030.4M322 1094.8H386.4M322 1030.4V966M322 1030.4H386.4M322 966V901.6M322 966H386.4M322 901.6V837.2M322 901.6H386.4M322 837.2V772.8M322 837.2H386.4M322 772.8V708.4M322 772.8H386.4M322 708.4V644M322 708.4H386.4M322 644V579.6M322 644H386.4M322 579.6V515.2M322 579.6H386.4M322 515.2V450.8M322 515.2H386.4M322 450.8V386.4M322 450.8H386.4M322 386.4V322M322 386.4H386.4M322 322V257.6M322 322H386.4M322 257.6V193.2M322 257.6H386.4M322 193.2V128.8M322 193.2H386.4M322 128.8V64.4M322 128.8H386.4M322 64.4V0M322 64.4H386.4M322 0H386.4M386.4 1288V1223.6M386.4 1288H450.8M386.4 1223.6V1159.2M386.4 1223.6H450.8M386.4 1159.2V1094.8M386.4 1159.2H450.8M386.4 1094.8V1030.4M386.4 1094.8H450.8M386.4 1030.4V966M386.4 1030.4H450.8M386.4 966V901.6M386.4 966H450.8M386.4 901.6V837.2M386.4 901.6H450.8M386.4 837.2V772.8M386.4 837.2H450.8M386.4 772.8V708.4M386.4 772.8H450.8M386.4 708.4V644M386.4 708.4H450.8M386.4 644V579.6M386.4 644H450.8M386.4 579.6V515.2M386.4 579.6H450.8M386.4 515.2V450.8M386.4 515.2H450.8M386.4 450.8V386.4M386.4 450.8H450.8M386.4 386.4V322M386.4 386.4H450.8M386.4 322V257.6M386.4 322H450.8M386.4 257.6V193.2M386.4 257.6H450.8M386.4 193.2V128.8M386.4 193.2H450.8M386.4 128.8V64.4M386.4 128.8H450.8M386.4 64.4V0M386.4 64.4H450.8M386.4 0H450.8M450.8 1288V1223.6M450.8 1288H515.2M450.8 1223.6V1159.2M450.8 1223.6H515.2M450.8 1159.2V1094.8M450.8 1159.2H515.2M450.8 1094.8V1030.4M450.8 1094.8H515.2M450.8 1030.4V966M450.8 1030.4H515.2M450.8 966V901.6M450.8 966H515.2M450.8 901.6V837.2M450.8 901.6H515.2M450.8 837.2H515.2M450.8 837.2V772.8M450.8 772.8V708.4M450.8 772.8H515.2M450.8 708.4V644M450.8 708.4H515.2M450.8 644V579.6M450.8 644H515.2M450.8 579.6V515.2M450.8 579.6H515.2M450.8 515.2V450.8M450.8 515.2H515.2M450.8 450.8V386.4M450.8 450.8H515.2M450.8 386.4V322M450.8 386.4H515.2M450.8 322V257.6M450.8 322H515.2M450.8 257.6V193.2M450.8 257.6H515.2M450.8 193.2V128.8M450.8 193.2H515.2M450.8 128.8V64.4M450.8 128.8H515.2M450.8 64.4V0M450.8 64.4H515.2M450.8 0H515.2M515.2 1288V1223.6M515.2 1288H579.6M515.2 1223.6V1159.2M515.2 1223.6H579.6M515.2 1159.2V1094.8M515.2 1159.2H579.6M515.2 1094.8V1030.4M515.2 1094.8H579.6M515.2 1030.4V966M515.2 1030.4H579.6M515.2 966V901.6M515.2 966H579.6M515.2 901.6V837.2M515.2 901.6H579.6M515.2 837.2V772.8M515.2 837.2H579.6M515.2 772.8V708.4M515.2 772.8H579.6M515.2 708.4V644M515.2 708.4H579.6M515.2 644V579.6M515.2 644H579.6M515.2 579.6V515.2M515.2 579.6H579.6M515.2 515.2V450.8M515.2 515.2H579.6M515.2 450.8V386.4M515.2 450.8C515.2 450.8 554.45 450.8 579.6 450.8M515.2 386.4V322M515.2 386.4H579.6M515.2 322V257.6M515.2 322H579.6M515.2 257.6V193.2M515.2 257.6H579.6M515.2 193.2V128.8M515.2 193.2H579.6M515.2 128.8V64.4M515.2 128.8H579.6M515.2 64.4V0M515.2 64.4H579.6M515.2 0H579.6M579.6 1288V1223.6M579.6 1288H644M579.6 1223.6V1159.2M579.6 1223.6H644M579.6 1159.2V1094.8M579.6 1159.2H644M579.6 1094.8V1030.4M579.6 1094.8H644M579.6 1030.4V966M579.6 1030.4H644M579.6 966V901.6M579.6 966H644M579.6 901.6V837.2M579.6 901.6H644M579.6 837.2V772.8M579.6 837.2H644M579.6 772.8V708.4M579.6 772.8H644M579.6 708.4V644M579.6 708.4H644M579.6 644V579.6M579.6 644H644M579.6 579.6V515.2M579.6 579.6H644M579.6 515.2C579.6 515.2 579.6 475.95 579.6 450.8M579.6 515.2H644M579.6 450.8C579.6 425.65 579.6 386.4 579.6 386.4M579.6 450.8C604.75 450.8 644 450.8 644 450.8M579.6 386.4V322M579.6 386.4H644M579.6 322V257.6M579.6 322H644M579.6 257.6V193.2M579.6 257.6H644M579.6 193.2V128.8M579.6 193.2H644M579.6 128.8V64.4M579.6 128.8H644M579.6 64.4V0M579.6 64.4H644M579.6 0H644M644 1288V1223.6M644 1288H708.4M644 1223.6V1159.2M644 1223.6H708.4M644 1159.2V1094.8M644 1159.2H708.4M644 1094.8V1030.4M644 1094.8H708.4M644 1030.4V966M644 1030.4H708.4M644 966V901.6M644 966H708.4M644 901.6V837.2M644 901.6H708.4M644 837.2V772.8M644 837.2H708.4M644 772.8V708.4M644 772.8H708.4M644 708.4V644M644 708.4H708.4M644 644V579.6M644 644H708.4M644 579.6V515.2M644 579.6H708.4M644 515.2V450.8M644 515.2H708.4M644 450.8V386.4M644 450.8H708.4M644 386.4V322M644 386.4H708.4M644 322V257.6M644 322H708.4M644 257.6V193.2M644 257.6H708.4M644 193.2V128.8M644 193.2H708.4M644 128.8V64.4M644 128.8H708.4M644 64.4V0M644 64.4H708.4M644 0H708.4M708.4 1288V1223.6M708.4 1288H772.8M708.4 1223.6V1159.2M708.4 1223.6H772.8M708.4 1159.2V1094.8M708.4 1159.2H772.8M708.4 1094.8V1030.4M708.4 1094.8H772.8M708.4 1030.4V966M708.4 1030.4H772.8M708.4 966V901.6M708.4 966H2125.2M708.4 901.6V837.2M708.4 901.6H772.8M708.4 837.2V772.8M708.4 837.2H772.8M708.4 772.8V708.4M708.4 772.8H772.8M708.4 708.4V644M708.4 708.4H772.8M708.4 644V579.6M708.4 644H772.8M708.4 579.6V515.2M708.4 579.6H772.8M708.4 515.2V450.8M708.4 515.2H772.8M708.4 450.8V386.4M708.4 450.8H772.8M708.4 386.4V322M708.4 386.4H772.8M708.4 322V257.6M708.4 322H772.8M708.4 257.6V193.2M708.4 257.6H772.8M708.4 193.2V128.8M708.4 193.2H772.8M708.4 128.8V64.4M708.4 128.8H772.8M708.4 64.4V0M708.4 64.4H772.8M708.4 0H772.8M772.8 1288V1223.6M772.8 1288H837.2M772.8 1223.6V1159.2M772.8 1223.6H837.2M772.8 1159.2V1094.8M772.8 1159.2H837.2M772.8 1094.8H837.2M772.8 1094.8V1030.4M772.8 901.6V837.2M772.8 901.6H837.2M772.8 901.6V1030.4M772.8 837.2V772.8M772.8 837.2H837.2M772.8 772.8V708.4M772.8 772.8H837.2M772.8 708.4V644M772.8 708.4H837.2M772.8 644V579.6M772.8 644H837.2M772.8 579.6V515.2M772.8 579.6H837.2M772.8 515.2V450.8M772.8 515.2H837.2M772.8 450.8V386.4M772.8 450.8H837.2M772.8 386.4V322M772.8 386.4H837.2M772.8 322V257.6M772.8 322H837.2M772.8 257.6V193.2M772.8 257.6H837.2M772.8 193.2V128.8M772.8 193.2H837.2M772.8 128.8V64.4M772.8 128.8H837.2M772.8 64.4V0M772.8 64.4H837.2M772.8 0H837.2M837.2 1288V1223.6M837.2 1288H901.6M837.2 1223.6V1159.2M837.2 1223.6H901.6M837.2 1159.2V1094.8M837.2 1159.2H901.6M837.2 1094.8H901.6M837.2 1094.8V1030.4M837.2 901.6V837.2M837.2 901.6H901.6M837.2 901.6V1030.4M837.2 837.2V772.8M837.2 837.2H901.6M837.2 772.8V708.4M837.2 772.8H901.6M837.2 708.4V644M837.2 708.4H901.6M837.2 644V579.6M837.2 644H901.6M837.2 579.6V515.2M837.2 579.6H901.6M837.2 515.2V450.8M837.2 515.2H901.6M837.2 450.8V386.4M837.2 450.8H901.6M837.2 386.4V322M837.2 386.4H901.6M837.2 322V257.6M837.2 322H901.6M837.2 257.6V193.2M837.2 257.6H901.6M837.2 193.2V128.8M837.2 193.2H901.6M837.2 128.8V64.4M837.2 128.8H901.6M837.2 64.4V0M837.2 64.4H901.6M837.2 0H901.6M901.6 1288V1223.6M901.6 1288H966M901.6 1223.6V1159.2M901.6 1223.6H966M901.6 1159.2V1094.8M901.6 1159.2H966M901.6 1094.8H966M901.6 1094.8V1030.4M901.6 901.6V837.2M901.6 901.6H1932M901.6 901.6V1030.4M901.6 837.2V772.8M901.6 837.2H1932M901.6 772.8V708.4M901.6 772.8H966M901.6 708.4V644M901.6 708.4H966M901.6 644V579.6M901.6 644H966M901.6 579.6V515.2M901.6 579.6H966M901.6 515.2V450.8M901.6 515.2H966M901.6 450.8V386.4M901.6 450.8H966M901.6 386.4V322M901.6 386.4H966M901.6 322V257.6M901.6 322H966M901.6 257.6V193.2M901.6 257.6H966M901.6 193.2V128.8M901.6 193.2H966M901.6 128.8V64.4M901.6 128.8H966M901.6 64.4V0M901.6 64.4H966M901.6 0H966M966 1288V1223.6M966 1288H1030.4M966 1223.6V1159.2M966 1223.6H1030.4M966 1159.2V1094.8M966 1159.2H1030.4M966 1094.8H1030.4M966 1094.8V1030.4M966 772.8V708.4M966 772.8H1030.4M966 772.8V1030.4M966 708.4V644M966 708.4H1030.4M966 644V579.6M966 644H1030.4M966 579.6V515.2M966 579.6H1030.4M966 515.2V450.8M966 515.2H1030.4M966 450.8V386.4M966 450.8H1030.4M966 386.4V322M966 386.4H1030.4M966 322V257.6M966 322H1030.4M966 257.6V193.2M966 257.6H1030.4M966 193.2V128.8M966 193.2H1030.4M966 128.8V64.4M966 128.8H1030.4M966 64.4V0M966 64.4H1030.4M966 0H1030.4M1030.4 1288V1223.6M1030.4 1288H1094.8M1030.4 1223.6V1159.2M1030.4 1223.6H1094.8M1030.4 1159.2V1094.8M1030.4 1159.2H1094.8M1030.4 1094.8H1094.8M1030.4 1094.8V1030.4M1030.4 772.8V708.4M1030.4 772.8H1094.8M1030.4 772.8V1030.4M1030.4 708.4V644M1030.4 708.4H1094.8M1030.4 644V579.6M1030.4 644H1094.8M1030.4 579.6V515.2M1030.4 579.6H1094.8M1030.4 515.2V450.8M1030.4 515.2H1094.8M1030.4 450.8V386.4M1030.4 450.8H1094.8M1030.4 386.4V322M1030.4 386.4H1094.8M1030.4 322V257.6M1030.4 322H1094.8M1030.4 257.6V193.2M1030.4 257.6H1094.8M1030.4 193.2V128.8M1030.4 193.2H1094.8M1030.4 128.8V64.4M1030.4 128.8H1094.8M1030.4 64.4V0M1030.4 64.4H1094.8M1030.4 0H1094.8M1094.8 1288V1223.6M1094.8 1288H1159.2M1094.8 1223.6V1159.2M1094.8 1223.6H1159.2M1094.8 1159.2V1094.8M1094.8 1159.2H1159.2M1094.8 1094.8H1159.2M1094.8 1094.8V1030.4M1094.8 772.8V708.4M1094.8 772.8H1159.2M1094.8 772.8V1030.4M1094.8 708.4V644M1094.8 708.4H1159.2M1094.8 644V579.6M1094.8 644H1159.2M1094.8 579.6V515.2M1094.8 579.6H1159.2M1094.8 515.2V450.8M1094.8 515.2H1159.2M1094.8 450.8V386.4M1094.8 450.8H1159.2M1094.8 386.4V322M1094.8 386.4H1159.2M1094.8 322V257.6M1094.8 322H1159.2M1094.8 257.6V193.2M1094.8 257.6H1159.2M1094.8 193.2V128.8M1094.8 193.2H1159.2M1094.8 128.8V64.4M1094.8 128.8H1159.2M1094.8 64.4V0M1094.8 64.4H1159.2M1094.8 0H1159.2M1159.2 1288V1223.6M1159.2 1288H1223.6M1159.2 1223.6V1159.2M1159.2 1223.6H1223.6M1159.2 1159.2V1094.8M1159.2 1159.2H1223.6M1159.2 1094.8H1223.6M1159.2 1094.8V1030.4M1159.2 772.8V708.4M1159.2 772.8H1223.6M1159.2 772.8V1030.4M1159.2 708.4V644M1159.2 708.4H1223.6M1159.2 644V579.6M1159.2 644H1223.6M1159.2 579.6V515.2M1159.2 579.6H1223.6M1159.2 515.2V450.8M1159.2 515.2H1223.6M1159.2 450.8V386.4M1159.2 450.8H1223.6M1159.2 386.4V322M1159.2 386.4H1223.6M1159.2 322V257.6M1159.2 322H1223.6M1159.2 257.6V193.2M1159.2 257.6H1223.6M1159.2 193.2V128.8M1159.2 193.2H1223.6M1159.2 128.8V64.4M1159.2 128.8H1223.6M1159.2 64.4V0M1159.2 64.4H1223.6M1159.2 0H1223.6M1223.6 1288V1223.6M1223.6 1288H1288M1223.6 1223.6V1159.2M1223.6 1223.6H1288M1223.6 1159.2V1094.8M1223.6 1159.2H1288M1223.6 1094.8H1288M1223.6 1094.8V1030.4M1223.6 772.8V708.4M1223.6 772.8H1288M1223.6 772.8V1030.4M1223.6 708.4V644M1223.6 708.4H1288M1223.6 644V579.6M1223.6 644H1288M1223.6 579.6V515.2M1223.6 579.6H1288M1223.6 515.2V450.8M1223.6 515.2H1288M1223.6 450.8V386.4M1223.6 450.8H1288M1223.6 386.4V322M1223.6 386.4H1288M1223.6 322V257.6M1223.6 322H1288M1223.6 257.6V193.2M1223.6 257.6H1288M1223.6 193.2V128.8M1223.6 193.2H1288M1223.6 128.8V64.4M1223.6 128.8H1288M1223.6 64.4V0M1223.6 64.4H1288M1223.6 0H1288M1288 1288V1223.6M1288 1288H1352.4M1288 1223.6V1159.2M1288 1223.6H1352.4M1288 1159.2V1094.8M1288 1159.2H1352.4M1288 1094.8H1352.4M1288 1094.8V1030.4M1288 772.8V708.4M1288 772.8H1352.4M1288 772.8V1030.4M1288 708.4V644M1288 708.4H1352.4M1288 644V579.6M1288 644H1352.4M1288 579.6V515.2M1288 579.6H1352.4M1288 515.2V450.8M1288 515.2H1352.4M1288 450.8V386.4M1288 450.8H1352.4M1288 386.4V322M1288 386.4H1352.4M1288 322V257.6M1288 322H1352.4M1288 257.6V193.2M1288 257.6H1352.4M1288 193.2V128.8M1288 193.2H1352.4M1288 128.8V64.4M1288 128.8H1352.4M1288 64.4V0M1288 64.4H1352.4M1288 0H1352.4M1352.4 1288V1223.6M1352.4 1288H1416.8M1352.4 1223.6H1416.8M1352.4 1223.6V1159.2M1352.4 1159.2V1094.8M1352.4 1159.2H1416.8M1352.4 1094.8H1416.8M1352.4 1094.8V1030.4M1352.4 772.8V708.4M1352.4 772.8H1416.8M1352.4 772.8V1030.4M1352.4 708.4V644M1352.4 708.4H1416.8M1352.4 644V579.6M1352.4 644H1416.8M1352.4 579.6V515.2M1352.4 579.6H1416.8M1352.4 515.2V450.8M1352.4 515.2H1416.8M1352.4 450.8V386.4M1352.4 450.8H1416.8M1352.4 386.4V322M1352.4 386.4H1416.8M1352.4 322V257.6M1352.4 322H1416.8M1352.4 257.6V193.2M1352.4 257.6H1416.8M1352.4 193.2V128.8M1352.4 193.2H1416.8M1352.4 128.8V64.4M1352.4 128.8H1416.8M1352.4 64.4V0M1352.4 64.4H1416.8M1352.4 0H1416.8M1416.8 1288V1223.6M1416.8 1288H1481.2M1416.8 1223.6H1481.2M1416.8 1223.6V1159.2M1416.8 1159.2V1094.8M1416.8 1159.2H1481.2M1416.8 1094.8H1481.2M1416.8 1094.8V772.8M1416.8 772.8V708.4M1416.8 772.8H1481.2M1416.8 708.4V644M1416.8 708.4H1481.2M1416.8 644V579.6M1416.8 644H1481.2M1416.8 579.6V515.2M1416.8 579.6H1481.2M1416.8 515.2V450.8M1416.8 515.2H1481.2M1416.8 450.8V386.4M1416.8 450.8H1481.2M1416.8 386.4V322M1416.8 386.4H1481.2M1416.8 322V257.6M1416.8 322H1481.2M1416.8 257.6V193.2M1416.8 257.6H1481.2M1416.8 193.2V128.8M1416.8 193.2H1481.2M1416.8 128.8V64.4M1416.8 128.8H1481.2M1416.8 64.4V0M1416.8 64.4H1481.2M1416.8 0H1481.2M1481.2 1288V1223.6M1481.2 1288H1545.6M1481.2 1223.6H1545.6M1481.2 1223.6V1159.2M1481.2 1159.2V1094.8M1481.2 1159.2H1545.6M1481.2 1094.8H1545.6M1481.2 1094.8V772.8M1481.2 772.8V708.4M1481.2 772.8H1545.6M1481.2 708.4V644M1481.2 708.4H1545.6M1481.2 644V579.6M1481.2 644H1545.6M1481.2 579.6V515.2M1481.2 579.6H1545.6M1481.2 515.2V450.8M1481.2 515.2H1545.6M1481.2 450.8V386.4M1481.2 450.8H1545.6M1481.2 386.4V322M1481.2 386.4H1545.6M1481.2 322V257.6M1481.2 322H1545.6M1481.2 257.6V193.2M1481.2 257.6H1545.6M1481.2 193.2V128.8M1481.2 193.2H1545.6M1481.2 128.8V64.4M1481.2 128.8H1545.6M1481.2 64.4V0M1481.2 64.4H1545.6M1481.2 0H1545.6M1545.6 1288V1223.6M1545.6 1288H1610M1545.6 1223.6H1610M1545.6 1223.6V1159.2M1545.6 1159.2V1094.8M1545.6 1159.2H1610M1545.6 1094.8H1610M1545.6 1094.8V772.8M1545.6 772.8V708.4M1545.6 772.8H1610M1545.6 708.4V644M1545.6 708.4H1610M1545.6 644V579.6M1545.6 644H1610M1545.6 579.6V515.2M1545.6 579.6H1610M1545.6 515.2V450.8M1545.6 515.2H1610M1545.6 450.8V386.4M1545.6 450.8H1610M1545.6 386.4V322M1545.6 386.4H1610M1545.6 322V257.6M1545.6 322H1610M1545.6 257.6V193.2M1545.6 257.6H1610M1545.6 193.2V128.8M1545.6 193.2H1610M1545.6 128.8V64.4M1545.6 128.8H1610M1545.6 64.4V0M1545.6 64.4H1610M1545.6 0H1610M1610 1288V1223.6M1610 1288H1674.4M1610 1223.6V1159.2M1610 1223.6H1674.4M1610 1159.2V1094.8M1610 1159.2H1674.4M1610 1094.8H1674.4M1610 1094.8V772.8M1610 772.8V708.4M1610 772.8H1674.4M1610 708.4V644M1610 708.4H1674.4M1610 644V579.6M1610 644H1674.4M1610 579.6V515.2M1610 579.6H1674.4M1610 515.2V450.8M1610 515.2H1674.4M1610 450.8V386.4M1610 450.8H1674.4M1610 386.4V322M1610 386.4H1674.4M1610 322V257.6M1610 322H1674.4M1610 257.6V193.2M1610 257.6H1674.4M1610 193.2V128.8M1610 193.2H1674.4M1610 128.8V64.4M1610 128.8H1674.4M1610 64.4V0M1610 64.4H1674.4M1610 0H1674.4M1674.4 1288V1223.6M1674.4 1288H1738.8M1674.4 1223.6V1159.2M1674.4 1223.6H1738.8M1674.4 1159.2V1094.8M1674.4 1159.2H1738.8M1674.4 1094.8H1738.8M1674.4 1094.8V772.8M1674.4 772.8V708.4M1674.4 772.8H1738.8M1674.4 708.4V644M1674.4 708.4H1738.8M1674.4 644V579.6M1674.4 644H1738.8M1674.4 579.6V515.2M1674.4 579.6H1738.8M1674.4 515.2V450.8M1674.4 515.2H1738.8M1674.4 450.8V386.4M1674.4 450.8H1738.8M1674.4 386.4V322M1674.4 386.4H1738.8M1674.4 322V257.6M1674.4 322H1738.8M1674.4 257.6V193.2M1674.4 257.6H1738.8M1674.4 193.2V128.8M1674.4 193.2H1738.8M1674.4 128.8V64.4M1674.4 128.8H1738.8M1674.4 64.4V0M1674.4 64.4H1738.8M1674.4 0H1738.8M1738.8 1288V1223.6M1738.8 1288H1803.2M1738.8 1223.6V1159.2M1738.8 1223.6H1803.2M1738.8 1159.2V1094.8M1738.8 1159.2H1803.2M1738.8 1094.8H1803.2M1738.8 1094.8V772.8M1738.8 772.8V708.4M1738.8 772.8H1803.2M1738.8 708.4V644M1738.8 708.4H1803.2M1738.8 644V579.6M1738.8 644H1803.2M1738.8 579.6V515.2M1738.8 579.6H1803.2M1738.8 515.2V450.8M1738.8 515.2H1803.2M1738.8 450.8V386.4M1738.8 450.8H1803.2M1738.8 386.4V322M1738.8 386.4H1803.2M1738.8 322V257.6M1738.8 322H1803.2M1738.8 257.6V193.2M1738.8 257.6H1803.2M1738.8 193.2V128.8M1738.8 193.2H1803.2M1738.8 128.8V64.4M1738.8 128.8H1803.2M1738.8 64.4V0M1738.8 64.4H1803.2M1738.8 0H1803.2M1803.2 1288V1223.6M1803.2 1288H1867.6M1803.2 1223.6V1159.2M1803.2 1223.6H1867.6M1803.2 1159.2V1094.8M1803.2 1159.2H1867.6M1803.2 1094.8H1867.6M1803.2 1094.8V772.8M1803.2 772.8V708.4M1803.2 772.8H1867.6M1803.2 708.4V644M1803.2 708.4H1867.6M1803.2 644V579.6M1803.2 644H1867.6M1803.2 579.6V515.2M1803.2 579.6H1867.6M1803.2 515.2V450.8M1803.2 515.2H1867.6M1803.2 450.8V386.4M1803.2 450.8H1867.6M1803.2 386.4V322M1803.2 386.4H1867.6M1803.2 322V257.6M1803.2 322H1867.6M1803.2 257.6V193.2M1803.2 257.6H1867.6M1803.2 193.2V128.8M1803.2 193.2H1867.6M1803.2 128.8V64.4M1803.2 128.8H1867.6M1803.2 64.4V0M1803.2 64.4H1867.6M1803.2 0H1867.6M1867.6 1288V1223.6M1867.6 1288H1932M1867.6 1223.6V1159.2M1867.6 1223.6H1932M1867.6 1159.2V1094.8M1867.6 1159.2H1932M1867.6 1094.8H1932M1867.6 1094.8V772.8M1867.6 772.8V708.4M1867.6 772.8H1932M1867.6 708.4V644M1867.6 708.4H1932M1867.6 644V579.6M1867.6 644H1932M1867.6 579.6V515.2M1867.6 579.6H1932M1867.6 515.2V450.8M1867.6 515.2H1932M1867.6 450.8V386.4M1867.6 450.8H1932M1867.6 386.4V322M1867.6 386.4H1932M1867.6 322V257.6M1867.6 322H1932M1867.6 257.6V193.2M1867.6 257.6H1932M1867.6 193.2V128.8M1867.6 193.2H1932M1867.6 128.8V64.4M1867.6 128.8H1932M1867.6 64.4V0M1867.6 64.4H1932M1867.6 0H1932M1932 1288V1223.6M1932 1288H1996.4M1932 1223.6V1159.2M1932 1223.6H1996.4M1932 1159.2V1094.8M1932 1159.2H1996.4M1932 1094.8H1996.4M1932 1094.8V901.6M1932 901.6V837.2M1932 901.6H1996.4M1932 837.2V772.8M1932 837.2H1996.4M1932 772.8V708.4M1932 772.8H1996.4M1932 708.4V644M1932 708.4H1996.4M1932 644V579.6M1932 644H1996.4M1932 579.6V515.2M1932 579.6H1996.4M1932 515.2V450.8M1932 515.2H1996.4M1932 450.8V386.4M1932 450.8H1996.4M1932 386.4V322M1932 386.4H1996.4M1932 322V257.6M1932 322H1996.4M1932 257.6V193.2M1932 257.6H1996.4M1932 193.2V128.8M1932 193.2H1996.4M1932 128.8V64.4M1932 128.8H1996.4M1932 64.4V0M1932 64.4H1996.4M1932 0H1996.4M1996.4 1288V1223.6M1996.4 1288H2060.8M1996.4 1223.6V1159.2M1996.4 1223.6H2060.8M1996.4 1159.2V1094.8M1996.4 1159.2H2060.8M1996.4 1094.8H2060.8M1996.4 1094.8V901.6M1996.4 901.6V837.2M1996.4 901.6H2060.8M1996.4 837.2V772.8M1996.4 837.2H2060.8M1996.4 772.8V708.4M1996.4 772.8H2060.8M1996.4 708.4V644M1996.4 708.4H2060.8M1996.4 644V579.6M1996.4 644H2060.8M1996.4 579.6V515.2M1996.4 579.6H2060.8M1996.4 515.2V450.8M1996.4 515.2H2060.8M1996.4 450.8V386.4M1996.4 450.8H2060.8M1996.4 386.4V322M1996.4 386.4H2060.8M1996.4 322V257.6M1996.4 322H2060.8M1996.4 257.6V193.2M1996.4 257.6H2060.8M1996.4 193.2V128.8M1996.4 193.2H2060.8M1996.4 128.8V64.4M1996.4 128.8H2060.8M1996.4 64.4V0M1996.4 64.4H2060.8M1996.4 0H2060.8M2060.8 1288V1223.6M2060.8 1288H2125.2M2060.8 1223.6V1159.2M2060.8 1223.6H2125.2M2060.8 1159.2V1094.8M2060.8 1159.2H2125.2M2060.8 1094.8H2125.2M2060.8 1094.8V901.6M2060.8 901.6V837.2M2060.8 901.6H2125.2M2060.8 837.2V772.8M2060.8 837.2H2125.2M2060.8 772.8V708.4M2060.8 772.8H2125.2M2060.8 708.4V644M2060.8 708.4H2125.2M2060.8 644V579.6M2060.8 644H2125.2M2060.8 579.6V515.2M2060.8 579.6H2125.2M2060.8 515.2V450.8M2060.8 515.2H2125.2M2060.8 450.8V386.4M2060.8 450.8H2125.2M2060.8 386.4V322M2060.8 386.4H2125.2M2060.8 322V257.6M2060.8 322H2125.2M2060.8 257.6V193.2M2060.8 257.6H2125.2M2060.8 193.2V128.8M2060.8 193.2H2125.2M2060.8 128.8V64.4M2060.8 128.8H2125.2M2060.8 64.4V0M2060.8 64.4H2125.2M2060.8 0H2125.2M2125.2 1288V1223.6M2125.2 1288H2189.6M2125.2 1223.6V1159.2M2125.2 1223.6H2189.6M2125.2 1159.2V1094.8M2125.2 1159.2H2189.6M2125.2 1094.8V1030.4M2125.2 1094.8H2189.6M2125.2 1030.4V966M2125.2 1030.4H2189.6M2125.2 1030.4H1352.4M2125.2 966V901.6M2125.2 966H2189.6M2125.2 901.6V837.2M2125.2 901.6H2189.6M2125.2 837.2V772.8M2125.2 837.2H2189.6M2125.2 772.8V708.4M2125.2 772.8H2189.6M2125.2 708.4V644M2125.2 708.4H2189.6M2125.2 644V579.6M2125.2 644H2189.6M2125.2 579.6V515.2M2125.2 579.6H2189.6M2125.2 515.2V450.8M2125.2 515.2H2189.6M2125.2 450.8V386.4M2125.2 450.8H2189.6M2125.2 386.4V322M2125.2 386.4H2189.6M2125.2 322V257.6M2125.2 322H2189.6M2125.2 257.6V193.2M2125.2 257.6H2189.6M2125.2 193.2V128.8M2125.2 193.2H2189.6M2125.2 128.8V64.4M2125.2 128.8H2189.6M2125.2 64.4V0M2125.2 64.4H2189.6M2125.2 0H2189.6M2189.6 1288V1223.6M2189.6 1288H2254M2189.6 1223.6V1159.2M2189.6 1223.6H2254M2189.6 1159.2V1094.8M2189.6 1159.2H2254M2189.6 1094.8V1030.4M2189.6 1094.8H2254M2189.6 1030.4V966M2189.6 1030.4H2254M2189.6 966V901.6M2189.6 966H2254M2189.6 901.6V837.2M2189.6 901.6H2254M2189.6 837.2V772.8M2189.6 837.2H2254M2189.6 772.8V708.4M2189.6 772.8H2254M2189.6 708.4V644M2189.6 708.4H2254M2189.6 644V579.6M2189.6 644H2254M2189.6 579.6V515.2M2189.6 579.6H2254M2189.6 515.2V450.8M2189.6 515.2H2254M2189.6 450.8V386.4M2189.6 450.8H2254M2189.6 386.4V322M2189.6 386.4H2254M2189.6 322V257.6M2189.6 322H2254M2189.6 257.6V193.2M2189.6 257.6H2254M2189.6 193.2V128.8M2189.6 193.2H2254M2189.6 128.8V64.4M2189.6 128.8H2254M2189.6 64.4V0M2189.6 64.4H2254M2189.6 0H2254M2254 1288V1223.6M2254 1288H2318.4M2254 1223.6V1159.2M2254 1223.6H2318.4M2254 1159.2V1094.8M2254 1159.2H2318.4M2254 1094.8V1030.4M2254 1094.8H2318.4M2254 1030.4V966M2254 1030.4H2318.4M2254 966V901.6M2254 966H2318.4M2254 901.6V837.2M2254 901.6H2318.4M2254 837.2V772.8M2254 837.2H2318.4M2254 772.8V708.4M2254 772.8H2318.4M2254 708.4V644M2254 708.4H2318.4M2254 644V579.6M2254 644H2318.4M2254 579.6V515.2M2254 579.6H2318.4M2254 515.2V450.8M2254 515.2H2318.4M2254 450.8V386.4M2254 450.8H2318.4M2254 386.4V322M2254 386.4H2318.4M2254 322V257.6M2254 322H2318.4M2254 257.6V193.2M2254 257.6H2318.4M2254 193.2V128.8M2254 193.2H2318.4M2254 128.8V64.4M2254 128.8H2318.4M2254 64.4V0M2254 64.4H2318.4M2254 0H2318.4M2318.4 1288V1223.6M2318.4 1288H2382.8M2318.4 1223.6V1159.2M2318.4 1223.6H2382.8M2318.4 1159.2V1094.8M2318.4 1159.2H2382.8M2318.4 1094.8V1030.4M2318.4 1094.8H2382.8M2318.4 1030.4V966M2318.4 1030.4H2382.8M2318.4 966V901.6M2318.4 966H2382.8M2318.4 901.6V837.2M2318.4 901.6H2382.8M2318.4 837.2V772.8M2318.4 837.2H2382.8M2318.4 772.8V708.4M2318.4 772.8H2382.8M2318.4 708.4V644M2318.4 708.4H2382.8M2318.4 644V579.6M2318.4 644H2382.8M2318.4 579.6V515.2M2318.4 579.6H2382.8M2318.4 515.2V450.8M2318.4 515.2H2382.8M2318.4 450.8V386.4M2318.4 450.8H2382.8M2318.4 386.4V322M2318.4 386.4H2382.8M2318.4 322V257.6M2318.4 322H2382.8M2318.4 257.6V193.2M2318.4 257.6H2382.8M2318.4 193.2V128.8M2318.4 193.2H2382.8M2318.4 128.8V64.4M2318.4 128.8H2382.8M2318.4 64.4V0M2318.4 64.4H2382.8M2318.4 0H2382.8M2382.8 1288V1223.6M2382.8 1288H2447.2M2382.8 1223.6V1159.2M2382.8 1223.6H2447.2M2382.8 1159.2V1094.8M2382.8 1159.2H2447.2M2382.8 1094.8V1030.4M2382.8 1094.8H2447.2M2382.8 1030.4V966M2382.8 1030.4H2447.2M2382.8 966V901.6M2382.8 966H2447.2M2382.8 901.6V837.2M2382.8 901.6H2447.2M2382.8 837.2H2447.2M2382.8 837.2V772.8M2382.8 772.8V708.4M2382.8 772.8H2447.2M2382.8 708.4V644M2382.8 708.4H2447.2M2382.8 644V579.6M2382.8 644H2447.2M2382.8 579.6V515.2M2382.8 579.6H2447.2M2382.8 515.2V450.8M2382.8 515.2H2447.2M2382.8 450.8V386.4M2382.8 450.8H2447.2M2382.8 386.4V322M2382.8 386.4H2447.2M2382.8 322V257.6M2382.8 322H2447.2M2382.8 257.6V193.2M2382.8 257.6H2447.2M2382.8 193.2V128.8M2382.8 193.2H2447.2M2382.8 128.8V64.4M2382.8 128.8H2447.2M2382.8 64.4V0M2382.8 64.4H2447.2M2382.8 0H2447.2M2447.2 1288V1223.6M2447.2 1288H2511.6M2447.2 1223.6V1159.2M2447.2 1223.6H2511.6M2447.2 1159.2V1094.8M2447.2 1159.2H2511.6M2447.2 1094.8V1030.4M2447.2 1094.8H2511.6M2447.2 1030.4V966M2447.2 1030.4H2511.6M2447.2 966V901.6M2447.2 966H2511.6M2447.2 901.6V837.2M2447.2 901.6H2511.6M2447.2 837.2V772.8M2447.2 837.2H2511.6M2447.2 772.8V708.4M2447.2 772.8H2511.6M2447.2 708.4V644M2447.2 708.4H2511.6M2447.2 644V579.6M2447.2 644H2511.6M2447.2 579.6V515.2M2447.2 579.6H2511.6M2447.2 515.2V450.8M2447.2 515.2H2511.6M2447.2 450.8V386.4M2447.2 450.8H2511.6M2447.2 386.4V322M2447.2 386.4H2511.6M2447.2 322V257.6M2447.2 322H2511.6M2447.2 257.6V193.2M2447.2 257.6H2511.6M2447.2 193.2V128.8M2447.2 193.2H2511.6M2447.2 128.8V64.4M2447.2 128.8H2511.6M2447.2 64.4V0M2447.2 64.4H2511.6M2447.2 0H2511.6M2511.6 1288V1223.6M2511.6 1288H2576M2511.6 1223.6V1159.2M2511.6 1223.6H2576M2511.6 1159.2V1094.8M2511.6 1159.2H2576M2511.6 1094.8V1030.4M2511.6 1094.8H2576M2511.6 1030.4V966M2511.6 1030.4H2576M2511.6 966V901.6M2511.6 966H2576M2511.6 901.6V837.2M2511.6 901.6H2576M2511.6 837.2V772.8M2511.6 837.2H2576M2511.6 772.8V708.4M2511.6 772.8H2576M2511.6 708.4V644M2511.6 708.4H2576M2511.6 644V579.6M2511.6 644H2576M2511.6 579.6V515.2M2511.6 579.6H2576M2511.6 515.2V450.8M2511.6 515.2H2576M2511.6 450.8V386.4M2511.6 450.8H2576M2511.6 386.4V322M2511.6 386.4H2576M2511.6 322V257.6M2511.6 322H2576M2511.6 257.6V193.2M2511.6 257.6H2576M2511.6 193.2V128.8M2511.6 193.2H2576M2511.6 128.8V64.4M2511.6 128.8H2576M2511.6 64.4V0M2511.6 64.4H2576M2511.6 0H2576M2576 1288V1223.6M2576 1288H2640.4M2576 1223.6V1159.2M2576 1223.6H2640.4M2576 1159.2V1094.8M2576 1159.2H2640.4M2576 1094.8V1030.4M2576 1094.8H2640.4M2576 1030.4V966M2576 1030.4H2640.4M2576 966V901.6M2576 966H2640.4M2576 901.6V837.2M2576 901.6H2640.4M2576 837.2V772.8M2576 837.2H2640.4M2576 772.8V708.4M2576 772.8H2640.4M2576 708.4V644M2576 708.4H2640.4M2576 644V579.6M2576 644H2640.4M2576 579.6V515.2M2576 579.6H2640.4M2576 515.2V450.8M2576 515.2H2640.4M2576 450.8V386.4M2576 450.8H2640.4M2576 386.4V322M2576 386.4H2640.4M2576 322V257.6M2576 322H2640.4M2576 257.6V193.2M2576 257.6H2640.4M2576 193.2V128.8M2576 193.2H2640.4M2576 128.8V64.4M2576 128.8H2640.4M2576 64.4V0M2576 64.4H2640.4M2576 0H2640.4M2640.4 1288V1223.6M2640.4 1288H2704.8M2640.4 1223.6V1159.2M2640.4 1223.6H2704.8M2640.4 1159.2V1094.8M2640.4 1159.2H2704.8M2640.4 1094.8V1030.4M2640.4 1094.8H2704.8M2640.4 1030.4V966M2640.4 1030.4H2704.8M2640.4 966V901.6M2640.4 966H2704.8M2640.4 901.6V837.2M2640.4 901.6H2704.8M2640.4 837.2V772.8M2640.4 837.2H2704.8M2640.4 772.8V708.4M2640.4 772.8H2704.8M2640.4 708.4V644M2640.4 708.4H2704.8M2640.4 644V579.6M2640.4 644H2704.8M2640.4 579.6V515.2M2640.4 579.6H2704.8M2640.4 515.2V450.8M2640.4 515.2H2704.8M2640.4 450.8V386.4M2640.4 450.8H2704.8M2640.4 386.4V322M2640.4 386.4H2704.8M2640.4 322V257.6M2640.4 322H2704.8M2640.4 257.6V193.2M2640.4 257.6H2704.8M2640.4 193.2V128.8M2640.4 193.2H2704.8M2640.4 128.8V64.4M2640.4 128.8H2704.8M2640.4 64.4V0M2640.4 64.4H2704.8M2640.4 0H2704.8M2704.8 1288V1223.6M2704.8 1288H2769.2M2704.8 1223.6V1159.2M2704.8 1223.6H2769.2M2704.8 1159.2V1094.8M2704.8 1159.2H2769.2M2704.8 1094.8V1030.4M2704.8 1094.8H2769.2M2704.8 1030.4V966M2704.8 1030.4H2769.2M2704.8 966V901.6M2704.8 966H2769.2M2704.8 901.6V837.2M2704.8 901.6H2769.2M2704.8 837.2V772.8M2704.8 837.2H2769.2M2704.8 772.8V708.4M2704.8 772.8H2769.2M2704.8 708.4V644M2704.8 708.4H2769.2M2704.8 644V579.6M2704.8 644H2769.2M2704.8 579.6V515.2M2704.8 579.6H2769.2M2704.8 515.2V450.8M2704.8 515.2H2769.2M2704.8 450.8V386.4M2704.8 450.8H2769.2M2704.8 386.4V322M2704.8 386.4H2769.2M2704.8 322V257.6M2704.8 322H2769.2M2704.8 257.6V193.2M2704.8 257.6H2769.2M2704.8 193.2V128.8M2704.8 193.2H2769.2M2704.8 128.8V64.4M2704.8 128.8H2769.2M2704.8 64.4V0M2704.8 64.4H2769.2M2704.8 0H2769.2M2769.2 1288V1223.6M2769.2 1288H2833.6V1223.6M2769.2 1223.6V1159.2M2769.2 1223.6H2833.6M2769.2 1159.2V1094.8M2769.2 1159.2H2833.6M2769.2 1094.8V1030.4M2769.2 1094.8H2833.6M2769.2 1030.4V966M2769.2 1030.4H2833.6M2769.2 966V901.6M2769.2 966H2833.6M2769.2 901.6V837.2M2769.2 901.6H2833.6M2769.2 837.2V772.8M2769.2 837.2H2833.6M2769.2 772.8V708.4M2769.2 772.8H2833.6M2769.2 708.4V644M2769.2 708.4H2833.6M2769.2 644V579.6M2769.2 644H2833.6M2769.2 579.6V515.2M2769.2 579.6H2833.6M2769.2 515.2V450.8M2769.2 515.2H2833.6M2769.2 450.8V386.4M2769.2 450.8H2833.6M2769.2 386.4V322M2769.2 386.4H2833.6M2769.2 322V257.6M2769.2 322H2833.6M2769.2 257.6V193.2M2769.2 257.6H2833.6M2769.2 193.2V128.8M2769.2 193.2H2833.6M2769.2 128.8V64.4M2769.2 128.8H2833.6M2769.2 64.4V0M2769.2 64.4H2833.6M2769.2 0H2833.6V64.4M2833.6 1223.6V1159.2M2833.6 1159.2V1094.8M2833.6 1094.8V1030.4M2833.6 1030.4V966M2833.6 966V901.6M2833.6 901.6V837.2M2833.6 837.2V772.8M2833.6 772.8V708.4M2833.6 708.4V644M2833.6 644V579.6M2833.6 579.6V515.2M2833.6 515.2V450.8M2833.6 450.8V386.4M2833.6 386.4V322M2833.6 322V257.6M2833.6 257.6V193.2M2833.6 193.2V128.8M2833.6 128.8V64.4M772.8 1030.4H837.2M837.2 1030.4H901.6M901.6 1030.4H966M966 1030.4H1030.4M1030.4 1030.4H1094.8M1094.8 1030.4H1159.2M1159.2 1030.4H1223.6M1223.6 1030.4H1288M1288 1030.4H1352.4" stroke="url(#paint0_radial_15_12)"/>
  <defs>
    <radialGradient id="paint0_radial_15_12" cx="0" cy="0" r="1" gradientUnits="userSpaceOnUse" gradientTransform="translate(1417 644) rotate(-91.9481) scale(735.425 1617.94)">
      <stop stop-opacity="0.2"/>
      <stop offset="1" stop-opacity="0"/>
    </radialGradient>
  </defs>
</svg>